<svg width="0" height="0" class="hidden">
  <symbol id="email" xmlns="http://www.w3.org/2000/svg" viewBox="0 0 122.88 88.86">
    <title>email</title>
    <path d="M7.05,0H115.83a7.07,7.07,0,0,1,7,7.05V81.81a7,7,0,0,1-1.22,4,2.78,2.78,0,0,1-.66,1,2.62,2.62,0,0,1-.66.46,7,7,0,0,1-4.51,1.65H7.05a7.07,7.07,0,0,1-7-7V7.05A7.07,7.07,0,0,1,7.05,0Zm-.3,78.84L43.53,40.62,6.75,9.54v69.3ZM49.07,45.39,9.77,83.45h103L75.22,45.39l-11,9.21h0a2.7,2.7,0,0,1-3.45,0L49.07,45.39Zm31.6-4.84,35.46,38.6V9.2L80.67,40.55ZM10.21,5.41,62.39,47.7,112.27,5.41Z"></path>
  </symbol>
  <symbol xmlns="http://www.w3.org/2000/svg" viewBox="0 0 512 512" id="github">
    <title>ionicons-v5_logos</title>
    <path d="M256,32C132.3,32,32,134.9,32,261.7c0,101.5,64.2,187.5,153.2,217.9a17.56,17.56,0,0,0,3.8.4c8.3,0,11.5-6.1,11.5-11.4,0-5.5-.2-19.9-.3-39.1a102.4,102.4,0,0,1-22.6,2.7c-43.1,0-52.9-33.5-52.9-33.5-10.2-26.5-24.9-33.6-24.9-33.6-19.5-13.7-.1-14.1,1.4-14.1h.1c22.5,2,34.3,23.8,34.3,23.8,11.2,19.6,26.2,25.1,39.6,25.1a63,63,0,0,0,25.6-6c2-14.8,7.8-24.9,14.2-30.7-49.7-5.8-102-25.5-102-113.5,0-25.1,8.7-45.6,23-61.6-2.3-5.8-10-29.2,2.2-60.8a18.64,18.64,0,0,1,5-.5c8.1,0,26.4,3.1,56.6,24.1a208.21,208.21,0,0,1,112.2,0c30.2-21,48.5-24.1,56.6-24.1a18.64,18.64,0,0,1,5,.5c12.2,31.6,4.5,55,2.2,60.8,14.3,16.1,23,36.6,23,61.6,0,88.2-52.4,107.6-102.3,113.3,8,7.1,15.2,21.1,15.2,42.5,0,30.7-.3,55.5-.3,63,0,5.4,3.1,11.5,11.4,11.5a19.35,19.35,0,0,0,4-.4C415.9,449.2,480,363.1,480,261.7,480,134.9,379.7,32,256,32Z"></path>
  </symbol>
  <symbol fill="#000000" xmlns="http://www.w3.org/2000/svg" viewBox="0 0 50 50" id="discord">
    <path d="M 18.90625 7 C 18.90625 7 12.539063 7.4375 8.375 10.78125 C 8.355469 10.789063 8.332031 10.800781 8.3125 10.8125 C 7.589844 11.480469 7.046875 12.515625 6.375 14 C 5.703125 15.484375 4.992188 17.394531 4.34375 19.53125 C 3.050781 23.808594 2 29.058594 2 34 C 1.996094 34.175781 2.039063 34.347656 2.125 34.5 C 3.585938 37.066406 6.273438 38.617188 8.78125 39.59375 C 11.289063 40.570313 13.605469 40.960938 14.78125 41 C 15.113281 41.011719 15.429688 40.859375 15.625 40.59375 L 18.0625 37.21875 C 20.027344 37.683594 22.332031 38 25 38 C 27.667969 38 29.972656 37.683594 31.9375 37.21875 L 34.375 40.59375 C 34.570313 40.859375 34.886719 41.011719 35.21875 41 C 36.394531 40.960938 38.710938 40.570313 41.21875 39.59375 C 43.726563 38.617188 46.414063 37.066406 47.875 34.5 C 47.960938 34.347656 48.003906 34.175781 48 34 C 48 29.058594 46.949219 23.808594 45.65625 19.53125 C 45.007813 17.394531 44.296875 15.484375 43.625 14 C 42.953125 12.515625 42.410156 11.480469 41.6875 10.8125 C 41.667969 10.800781 41.644531 10.789063 41.625 10.78125 C 37.460938 7.4375 31.09375 7 31.09375 7 C 31.019531 6.992188 30.949219 6.992188 30.875 7 C 30.527344 7.046875 30.234375 7.273438 30.09375 7.59375 C 30.09375 7.59375 29.753906 8.339844 29.53125 9.40625 C 27.582031 9.09375 25.941406 9 25 9 C 24.058594 9 22.417969 9.09375 20.46875 9.40625 C 20.246094 8.339844 19.90625 7.59375 19.90625 7.59375 C 19.734375 7.203125 19.332031 6.964844 18.90625 7 Z M 18.28125 9.15625 C 18.355469 9.359375 18.40625 9.550781 18.46875 9.78125 C 16.214844 10.304688 13.746094 11.160156 11.4375 12.59375 C 11.074219 12.746094 10.835938 13.097656 10.824219 13.492188 C 10.816406 13.882813 11.039063 14.246094 11.390625 14.417969 C 11.746094 14.585938 12.167969 14.535156 12.46875 14.28125 C 17.101563 11.410156 22.996094 11 25 11 C 27.003906 11 32.898438 11.410156 37.53125 14.28125 C 37.832031 14.535156 38.253906 14.585938 38.609375 14.417969 C 38.960938 14.246094 39.183594 13.882813 39.175781 13.492188 C 39.164063 13.097656 38.925781 12.746094 38.5625 12.59375 C 36.253906 11.160156 33.785156 10.304688 31.53125 9.78125 C 31.59375 9.550781 31.644531 9.359375 31.71875 9.15625 C 32.859375 9.296875 37.292969 9.894531 40.3125 12.28125 C 40.507813 12.460938 41.1875 13.460938 41.8125 14.84375 C 42.4375 16.226563 43.09375 18.027344 43.71875 20.09375 C 44.9375 24.125 45.921875 29.097656 45.96875 33.65625 C 44.832031 35.496094 42.699219 36.863281 40.5 37.71875 C 38.5 38.496094 36.632813 38.84375 35.65625 38.9375 L 33.96875 36.65625 C 34.828125 36.378906 35.601563 36.078125 36.28125 35.78125 C 38.804688 34.671875 40.15625 33.5 40.15625 33.5 C 40.570313 33.128906 40.605469 32.492188 40.234375 32.078125 C 39.863281 31.664063 39.226563 31.628906 38.8125 32 C 38.8125 32 37.765625 32.957031 35.46875 33.96875 C 34.625 34.339844 33.601563 34.707031 32.4375 35.03125 C 32.167969 35 31.898438 35.078125 31.6875 35.25 C 29.824219 35.703125 27.609375 36 25 36 C 22.371094 36 20.152344 35.675781 18.28125 35.21875 C 18.070313 35.078125 17.8125 35.019531 17.5625 35.0625 C 16.394531 34.738281 15.378906 34.339844 14.53125 33.96875 C 12.234375 32.957031 11.1875 32 11.1875 32 C 10.960938 31.789063 10.648438 31.699219 10.34375 31.75 C 9.957031 31.808594 9.636719 32.085938 9.53125 32.464844 C 9.421875 32.839844 9.546875 33.246094 9.84375 33.5 C 9.84375 33.5 11.195313 34.671875 13.71875 35.78125 C 14.398438 36.078125 15.171875 36.378906 16.03125 36.65625 L 14.34375 38.9375 C 13.367188 38.84375 11.5 38.496094 9.5 37.71875 C 7.300781 36.863281 5.167969 35.496094 4.03125 33.65625 C 4.078125 29.097656 5.0625 24.125 6.28125 20.09375 C 6.90625 18.027344 7.5625 16.226563 8.1875 14.84375 C 8.8125 13.460938 9.492188 12.460938 9.6875 12.28125 C 12.707031 9.894531 17.140625 9.296875 18.28125 9.15625 Z M 18.5 21 C 15.949219 21 14 23.316406 14 26 C 14 28.683594 15.949219 31 18.5 31 C 21.050781 31 23 28.683594 23 26 C 23 23.316406 21.050781 21 18.5 21 Z M 31.5 21 C 28.949219 21 27 23.316406 27 26 C 27 28.683594 28.949219 31 31.5 31 C 34.050781 31 36 28.683594 36 26 C 36 23.316406 34.050781 21 31.5 21 Z M 18.5 23 C 19.816406 23 21 24.265625 21 26 C 21 27.734375 19.816406 29 18.5 29 C 17.183594 29 16 27.734375 16 26 C 16 24.265625 17.183594 23 18.5 23 Z M 31.5 23 C 32.816406 23 34 24.265625 34 26 C 34 27.734375 32.816406 29 31.5 29 C 30.183594 29 29 27.734375 29 26 C 29 24.265625 30.183594 23 31.5 23 Z"></path>
  </symbol>
  <symbol version="1.1" id="phone" xmlns="http://www.w3.org/2000/svg" xmlns:xlink="http://www.w3.org/1999/xlink" x="0px" y="0px" enable-background="new 0 0 122.88 122.267" xml:space="preserve" viewBox="0 0 122.88 122.267">
    <g>
      <path d="M33.822,50.291c4.137,7.442,8.898,14.604,15.074,21.133C55.1,77.984,62.782,83.962,72.771,89.03l0.01,0.005l0.002-0.005 c0.728,0.371,1.421,0.362,2.072,0.118c0.944-0.353,1.927-1.137,2.883-2.086c0.729-0.726,1.643-1.924,2.631-3.223 c3.846-5.054,8.601-11.301,15.314-8.193c0.142,0.065,0.276,0.141,0.402,0.226l22.373,12.852c0.08,0.046,0.157,0.095,0.23,0.147 c2.966,2.036,4.177,5.172,4.19,8.683c0.014,3.621-1.329,7.674-3.274,11.101c-2.565,4.517-6.387,7.502-10.761,9.525 c-4.17,1.928-8.798,2.954-13.267,3.608c-6.989,1.025-13.578,0.374-20.288-1.692c-6.55-2.017-13.176-5.385-20.4-9.86l-0.526-0.326 c-3.326-2.06-6.906-4.276-10.389-6.904C31.108,93.296,18.007,79.283,9.512,63.904C2.361,50.958-1.552,36.995,0.581,23.681 C1.75,16.375,4.901,9.743,10.333,5.35c4.762-3.853,11.188-5.94,19.448-5.203c0.973,0.084,1.793,0.639,2.255,1.419l0.006-0.003 l14.324,24.27c2.11,2.718,2.344,5.415,1.203,8.096c-0.943,2.218-2.892,4.251-5.476,6.168c-0.786,0.65-1.708,1.325-2.659,2.021 C36.236,44.459,32.578,47.136,33.822,50.291L33.822,50.291z M44.67,75.422C38.066,68.44,33.035,60.88,28.695,53.065 c-0.076-0.123-0.144-0.253-0.202-0.39c-3.174-7.459,2.52-11.625,7.493-15.262c0.845-0.618,1.663-1.217,2.401-1.829l0.002,0.003 c0.043-0.036,0.088-0.071,0.135-0.105c1.843-1.354,3.171-2.647,3.678-3.837c0.289-0.679,0.182-1.426-0.466-2.265 c-0.111-0.129-0.213-0.271-0.303-0.423L27.795,5.852c-5.869-0.241-10.419,1.321-13.784,4.044 c-4.239,3.429-6.723,8.759-7.674,14.699c-1.905,11.894,1.716,24.594,8.292,36.5c8.078,14.623,20.575,27.977,32.864,37.25 c3.379,2.55,6.776,4.653,9.932,6.607l0.526,0.326c6.818,4.223,13.017,7.386,19.052,9.244c5.876,1.809,11.634,2.38,17.729,1.486 c4.009-0.587,8.113-1.485,11.668-3.129c3.351-1.55,6.248-3.785,8.134-7.104c1.496-2.637,2.53-5.653,2.521-8.222 c-0.006-1.63-0.472-3.029-1.605-3.844L93.2,80.93c-2.461-1.081-5.629,3.081-8.193,6.45c-1.104,1.452-2.125,2.792-3.156,3.817 c-1.477,1.466-3.118,2.723-4.962,3.411c-2.136,0.799-4.395,0.834-6.755-0.37l0.002-0.004C59.522,88.849,51.323,82.457,44.67,75.422 L44.67,75.422z"></path>
    </g>
  </symbol>
  <symbol fill="#000000" xmlns="http://www.w3.org/2000/svg" viewBox="0 0 80 80" id="telegram">
    <path d="M 70.511719 10.986328 C 69.833089 11.015588 69.157051 11.196735 68.537109 11.4375 L 68.535156 11.4375 C 67.931048 11.673297 64.049934 13.281226 58.392578 15.628906 C 52.735222 17.976586 45.3821 21.032905 38.091797 24.064453 C 23.51119 30.12755 9.1835937 36.091797 9.1835938 36.091797 L 9.2480469 36.068359 C 9.2480469 36.068359 8.4485192 36.330303 7.6484375 36.871094 C 7.2483967 37.141489 6.8283994 37.486951 6.4960938 37.966797 C 6.163788 38.446643 5.9299055 39.103809 6.0195312 39.808594 C 6.1812736 41.080477 7.0482024 41.912426 7.7636719 42.412109 C 8.4791414 42.911793 9.1660156 43.148437 9.1660156 43.148438 L 9.1738281 43.152344 L 23.1875 47.785156 C 23.418097 48.587707 27.163839 61.631062 28.046875 64.384766 C 28.50876 65.826709 28.935922 66.627156 29.335938 67.130859 C 29.535944 67.382711 29.733459 67.561543 29.931641 67.683594 C 30.016841 67.736064 30.101273 67.771554 30.183594 67.802734 C 30.197014 67.807834 30.211349 67.817736 30.224609 67.822266 C 30.252855 67.83191 30.267938 67.831811 30.302734 67.839844 C 31.62302 68.328201 32.738281 67.476563 32.738281 67.476562 L 32.769531 67.453125 L 42.376953 59 L 56.585938 70.394531 L 56.710938 70.449219 C 58.991132 71.431474 60.875783 70.891854 61.970703 70.027344 C 63.065623 69.162833 63.509766 68.03125 63.509766 68.03125 L 63.544922 67.943359 L 73.794922 16.097656 C 74.046117 14.98858 74.071392 14.057617 73.853516 13.257812 C 73.635643 12.458006 73.128863 11.807693 72.5 11.443359 C 71.871137 11.079025 71.190348 10.957066 70.511719 10.986328 z M 70.566406 13.021484 C 70.96444 13.004357 71.29991 13.059037 71.498047 13.173828 C 71.696183 13.288619 71.824951 13.420226 71.923828 13.783203 C 72.022708 14.14618 72.046557 14.758873 71.84375 15.654297 L 71.839844 15.667969 L 61.630859 67.3125 C 61.615849 67.34707 61.352842 67.965627 60.730469 68.457031 C 60.102941 68.952505 59.248838 69.318622 57.578125 68.626953 L 34.738281 50.310547 A 1.0001 1.0001 0 0 0 34 50 A 1.0001 1.0001 0 0 0 32.988281 50.974609 L 30.384766 64.923828 C 30.251656 64.61729 30.108215 64.257609 29.953125 63.773438 C 29.147161 61.260079 25.522903 48.675314 25.166016 47.435547 L 61.013672 24.226562 A 1.0001 1.0001 0 0 0 62 25 A 1.0001 1.0001 0 0 0 62.988281 23.783203 C 63.014848 23.477186 62.989225 23.17624 62.855469 22.876953 C 62.639651 22.394056 62.128723 22.100054 61.765625 22.03125 C 61.039429 21.893642 60.566406 22.158203 60.566406 22.158203 L 60.466797 22.195312 L 23.857422 45.900391 L 9.8261719 41.261719 L 9.8222656 41.259766 C 9.8185507 41.25848 9.3777555 41.099419 8.9082031 40.771484 C 8.4366726 40.442168 8.062164 40.014757 8.0039062 39.556641 C 7.9835322 39.396426 8.0143062 39.287873 8.140625 39.105469 C 8.2669443 38.923065 8.501119 38.707449 8.7675781 38.527344 C 9.3004964 38.167134 9.8886719 37.962891 9.8886719 37.962891 L 9.9199219 37.951172 L 9.953125 37.9375 C 9.953125 37.9375 24.279232 31.97306 38.859375 25.910156 C 46.149446 22.878704 53.503668 19.823883 59.160156 17.476562 C 64.816644 15.129243 68.856374 13.458984 69.261719 13.300781 C 69.707777 13.127547 70.168373 13.038612 70.566406 13.021484 z M 59.199219 25.699219 L 58.398438 26.101562 L 58.240234 26.984375 L 58.853516 27.638672 L 59.199219 27.699219 L 60 27.298828 L 60.158203 26.416016 L 59.546875 25.761719 L 59.199219 25.699219 z M 56.400391 28.400391 L 55.599609 28.800781 L 55.441406 29.683594 L 56.052734 30.337891 L 56.400391 30.400391 L 57.201172 29.998047 L 57.359375 29.117188 L 56.746094 28.462891 L 56.400391 28.400391 z M 53.599609 31.099609 L 52.798828 31.501953 L 52.640625 32.382812 L 53.251953 33.037109 L 53.599609 33.099609 L 54.400391 32.699219 L 54.558594 31.816406 L 53.947266 31.162109 L 53.599609 31.099609 z M 50.800781 33.800781 L 49.998047 34.201172 L 49.841797 35.083984 L 50.453125 35.738281 L 50.800781 35.800781 L 51.601562 35.398438 L 51.759766 34.517578 L 51.146484 33.861328 L 50.800781 33.800781 z M 48 36.5 L 47.199219 36.902344 L 47.041016 37.783203 L 47.652344 38.4375 L 48 38.5 L 48.800781 38.099609 L 48.958984 37.216797 L 48.347656 36.5625 L 48 36.5 z M 45.199219 39.199219 L 44.398438 39.601562 L 44.240234 40.484375 L 44.853516 41.138672 L 45.199219 41.199219 L 46.001953 40.798828 L 46.158203 39.916016 L 45.546875 39.261719 L 45.199219 39.199219 z M 42.400391 41.900391 L 41.599609 42.300781 L 41.441406 43.183594 L 42.052734 43.837891 L 42.400391 43.900391 L 43.201172 43.498047 L 43.359375 42.617188 L 42.746094 41.962891 L 42.400391 41.900391 z M 39.599609 44.599609 L 38.798828 45.001953 L 38.640625 45.882812 L 39.253906 46.537109 L 39.599609 46.599609 L 40.400391 46.199219 L 40.558594 45.316406 L 39.947266 44.662109 L 39.599609 44.599609 z M 36.800781 47.300781 L 35.998047 47.701172 L 35.841797 48.583984 L 36.453125 49.238281 L 36.800781 49.300781 L 37.601562 48.898438 L 37.759766 48.015625 L 37.146484 47.361328 L 36.800781 47.300781 z M 34.675781 52.824219 L 40.794922 57.730469 L 32.378906 65.132812 L 34.675781 52.824219 z"></path>
  </symbol>
</svg>