<svg>
<symbol version="1.1" id="Capa_1" xmlns="http://www.w3.org/2000/svg" xmlns:xlink="http://www.w3.org/1999/xlink" x="0px" y="0px"
	 viewBox="0 0 512.001 512.001" style="enable-background:new 0 0 512.001 512.001;" xml:space="preserve">
<g>
	<g>
		<path d="M504.397,0.042H125.783c-4.199,0-7.603,3.404-7.603,7.603c0,4.199,3.404,7.603,7.603,7.603h371.011v163.711H15.802V15.247
			h45.611c4.199,0,7.603-3.404,7.603-7.603c0-4.199-3.404-7.603-7.603-7.603H8.199C4,0.042,0.596,3.446,0.596,7.644v175.959
			C0.213,184.512,0,185.511,0,186.559v81.102v134.822v101.874c0,4.199,3.404,7.603,7.603,7.603h124.893h55.754h134.315h55.754
			h126.079c4.199,0,7.603-3.404,7.603-7.603V402.484V267.662V186.56V7.644C512,3.446,508.596,0.042,504.397,0.042z M15.206,275.264
			h64.367v119.617H15.206V275.264z M124.895,496.755h-0.001H15.206v-86.668h71.97c4.199,0,7.603-3.404,7.603-7.603V267.662
			c0-4.199-3.404-7.603-7.603-7.603h-71.97v-65.897H193.68c-5.226,2.793-10.295,5.935-15.16,9.465
			c-3.399,2.466-4.154,7.221-1.689,10.619s7.22,4.154,10.619,1.689c19.628-14.243,42.867-21.772,67.202-21.772
			c60.61,0,110.369,47.318,114.296,106.952h-39.17c-3.842-37.554-35.655-66.949-74.206-66.949
			c-38.551,0-70.365,29.395-74.206,66.949h-41.011c1.224-18.516,6.897-36.44,16.602-52.246c2.197-3.578,1.078-8.26-2.501-10.457
			c-3.578-2.197-8.26-1.078-10.457,2.501c-11.175,18.2-17.623,38.873-18.867,60.203h-9.36c-4.199,0-7.603,3.404-7.603,7.603v34.466
			c0,4.199,3.404,7.603,7.603,7.603h9.123V496.755z M304.571,350.785h10.39v119.617h-51.787V249.874
			c26.662,3.424,47.834,24.584,51.279,51.239h-9.882c-4.199,0-7.603,3.404-7.603,7.603v34.466
			C296.968,347.381,300.372,350.785,304.571,350.785z M207.51,301.114h-10.82c3.445-26.656,24.617-47.815,51.279-51.239v220.528
			h-52.116V350.785h11.658c4.199,0,7.603-3.404,7.603-7.603v-34.466C215.112,304.518,211.708,301.114,207.51,301.114z
			 M180.647,478.005v18.75h-40.548v-145.97h40.548V478.005z M188.249,335.58h-55.753h-9.123v-19.26h64.393
			c0.267,0.028,0.537,0.045,0.812,0.045c0.275,0,0.545-0.016,0.812-0.045h10.517v19.26H188.249z M314.962,496.755h-119.11v-11.148
			h119.11V496.755z M370.715,496.755h-40.548v-18.75v-127.22h40.548V496.755z M322.565,335.58h-10.39v-19.26h9.578
			c0.267,0.028,0.537,0.045,0.812,0.045s0.545-0.016,0.812-0.045h65.332v19.26h-10.39H322.565z M496.794,394.881h-64.367V275.264
			h64.367V394.881z M496.794,260.059h-71.97c-4.199,0-7.603,3.404-7.603,7.603v134.822c0,4.199,3.404,7.603,7.603,7.603h71.97
			v86.668H385.921v-145.97h10.39c4.199,0,7.603-3.404,7.603-7.603v-34.466c0-4.199-3.404-7.603-7.603-7.603h-12.128
			c-2.691-46.339-29.808-86.227-68.637-106.952h181.248V260.059z"/>
	</g>
</g>
<g>
	<g>
		<path d="M394.921,33.497H107.03c-4.199,0-7.603,3.404-7.603,7.603s3.404,7.603,7.603,7.603h287.891
			c4.199,0,7.603-3.404,7.603-7.603C402.523,36.901,399.119,33.497,394.921,33.497z"/>
	</g>
</g>
<g>
	<g>
		<path d="M394.921,145.511H107.03c-4.199,0-7.603,3.404-7.603,7.603s3.404,7.603,7.603,7.603h287.891
			c4.199,0,7.603-3.404,7.603-7.603S399.119,145.511,394.921,145.511z"/>
	</g>
</g>
<g>
	<g>
		<path d="M147.584,107.09c-3.151,0-5.745,0.927-5.93,3.799c-0.278,3.892-1.019,9.915-9.452,9.915
			c-6.393,0-9.915-3.428-9.915-10.656V84.295c0-7.229,3.521-10.657,9.729-10.657c8.803,0,9.452,6.301,9.635,9.174
			c0.093,2.781,2.595,3.799,6.023,3.799c4.077,0,6.023-1.112,6.023-5.93c0-10.75-9.174-17.607-22.054-17.607
			c-11.676,0-21.405,5.746-21.405,21.221v25.853c0,15.474,9.637,21.22,21.313,21.22c12.973,0,22.147-7.135,22.147-18.348
			C153.699,108.295,151.753,107.09,147.584,107.09z"/>
	</g>
</g>
<g>
	<g>
		<path d="M167.875,63.076c-3.058,0-6.023,1.112-6.023,3.706v60.233c0,2.502,2.966,3.799,6.023,3.799
			c2.965,0,6.023-1.298,6.023-3.799V66.782C173.898,64.188,170.84,63.076,167.875,63.076z"/>
	</g>
</g>
<g>
	<g>
		<path d="M223.937,63.076c-3.058,0-6.023,1.112-6.023,3.706v37.251l-17.885-34.564c-2.873-5.468-4.633-6.394-8.988-6.394
			c-3.058,0-6.023,1.204-6.023,3.799v60.14c0,2.502,2.966,3.799,6.023,3.799c2.965,0,6.023-1.298,6.023-3.799V89.762l19.923,37.251
			c1.575,2.873,4.077,3.799,6.95,3.8c2.965,0,6.023-1.298,6.023-3.799V66.782C229.96,64.188,226.902,63.076,223.937,63.076z"/>
	</g>
</g>
<g>
	<g>
		<path d="M279.349,120.25h-26.224v-18.626h14.085c2.595,0,3.799-2.502,3.799-4.634c0-2.502-1.39-4.819-3.799-4.819h-14.085V73.638
			h26.224c2.41,0,3.799-2.502,3.799-5.375c0-2.502-1.204-5.189-3.799-5.189H246.36c-2.688,0-5.282,1.298-5.282,3.799v60.141
			c0,2.502,2.595,3.799,5.282,3.799h32.989c2.595,0,3.799-2.686,3.799-5.189C283.148,122.752,281.758,120.25,279.349,120.25z"/>
	</g>
</g>
<g>
	<g>
		<path d="M337.819,63.074c-4.355,0-6.393,0.927-9.452,6.394l-11.398,20.758l-11.398-20.758c-3.058-5.468-5.004-6.394-9.359-6.394
			c-3.058,0-6.023,1.575-6.023,6.023v57.917c0,2.502,2.966,3.799,6.023,3.799c2.965,0,6.023-1.298,6.023-3.799V86.427l10.657,20.016
			c1.02,1.853,2.503,2.41,3.985,2.41s3.057-0.557,4.077-2.41l10.842-19.275v39.846c0,2.502,2.965,3.799,6.023,3.799
			c2.966,0,6.023-1.298,6.023-3.799V69.098C343.842,64.65,340.876,63.074,337.819,63.074z"/>
	</g>
</g>
<g>
	<g>
		<path d="M401.663,124.883l-17.885-58.287c-0.834-2.78-4.263-4.077-7.784-4.077c-3.428,0-6.857,1.298-7.691,4.077l-17.885,58.287
			c-0.092,0.37-0.186,0.741-0.186,0.927c0,2.965,4.356,5.004,7.599,5.004c2.039,0,3.614-0.649,4.077-2.41l3.522-12.325h21.221
			l3.522,12.325c0.463,1.761,2.039,2.41,4.077,2.41c3.244,0,7.599-2.131,7.599-5.004
			C401.848,125.532,401.756,125.254,401.663,124.883z M367.932,106.627l8.062-28.448l8.062,28.448H367.932z"/>
	</g>
</g>
<g>
</g>
<g>
</g>
<g>
</g>
<g>
</g>
<g>
</g>
<g>
</g>
<g>
</g>
<g>
</g>
<g>
</g>
<g>
</g>
<g>
</g>
<g>
</g>
<g>
</g>
<g>
</g>
<g>
</g>
</symbol>
<symbol width="60px" height="60px" viewBox="0 0 60 60" xmlns="http://www.w3.org/2000/svg"><defs><style>.cls-1{fill:none;}.cls-2{fill:#3d3d63;}</style></defs><title/><g data-name="Layer 2" id="Layer_2"><g id="Icons"><g id="Development"><rect class="cls-1" height="60" width="60"/><circle class="cls-2" cx="9.33" cy="15.74" r="1"/><circle class="cls-2" cx="16" cy="15.74" r="1"/><circle class="cls-2" cx="12.67" cy="15.74" r="1"/><path class="cls-2" d="M20,30.25l3-3a1,1,0,1,0-1.42-1.42l-3.72,3.73a1,1,0,0,0,0,1.41l3.72,3.73a1,1,0,0,0,1.42,0,1,1,0,0,0,0-1.41Z"/><path class="cls-2" d="M34.32,34.68a1,1,0,0,0,1.41,0L39.46,31a1,1,0,0,0,0-1.41l-3.73-3.73a1,1,0,0,0-1.41,1.42l3,3-3,3A1,1,0,0,0,34.32,34.68Z"/><path class="cls-2" d="M31,26.15a1,1,0,0,0-1.37.37L25.94,33a1,1,0,1,0,1.73,1l3.73-6.45A1,1,0,0,0,31,26.15Z"/><path class="cls-2" d="M55.86,40a.29.29,0,0,1-.27-.19,10.43,10.43,0,0,0-1.67-2.89.29.29,0,0,1,0-.33,2.3,2.3,0,0,0-.84-3.14L52.33,33V14.74a3,3,0,0,0-3-3H8a3,3,0,0,0-3,3V40.08a2.34,2.34,0,0,0,2.33,2.33H21l-1,3.7H18.67a4.33,4.33,0,0,0-4.21,3.33H12a1,1,0,0,0,0,2H37.47a2.12,2.12,0,0,0,.07.71,2.25,2.25,0,0,0,1.07,1.4l2.11,1.22a2.3,2.3,0,0,0,3.14-.85.31.31,0,0,1,.31-.14,9.74,9.74,0,0,0,3.32,0,.3.3,0,0,1,.31.15,2.3,2.3,0,0,0,2,1.14,2.27,2.27,0,0,0,1.15-.3l2.11-1.22a2.29,2.29,0,0,0,1.07-1.4,2.26,2.26,0,0,0-.23-1.74.3.3,0,0,1,0-.34,10.52,10.52,0,0,0,1.67-2.88.28.28,0,0,1,.27-.19,2.31,2.31,0,0,0,2.3-2.3V42.26A2.3,2.3,0,0,0,55.86,40ZM7,14.74a1,1,0,0,1,1-1H49.33a1,1,0,0,1,1,1v3H7Zm.33,25.67A.33.33,0,0,1,7,40.08V19.74H50.33V32A2.29,2.29,0,0,0,47.8,33h0a.29.29,0,0,1-.3.13,10.27,10.27,0,0,0-3.32,0,.28.28,0,0,1-.3-.13h0a2.29,2.29,0,0,0-3.14-.84l-2.11,1.22a2.24,2.24,0,0,0-1.07,1.39,2.32,2.32,0,0,0,.22,1.75.27.27,0,0,1,0,.33,10.43,10.43,0,0,0-1.67,2.89.29.29,0,0,1-.27.19,2.29,2.29,0,0,0-1.36.45ZM34,46.11H22l1-3.7H33.5V44.7A2.32,2.32,0,0,0,34,46.11Zm-15.32,2H36.48a11,11,0,0,0,.78,1.33H16.57A2.33,2.33,0,0,1,18.67,48.11ZM56.16,44.7a.3.3,0,0,1-.3.3,2.31,2.31,0,0,0-2.15,1.48,8.46,8.46,0,0,1-1.34,2.33,2.31,2.31,0,0,0-.21,2.6.26.26,0,0,1,0,.22.29.29,0,0,1-.14.19L49.94,53a.3.3,0,0,1-.41-.12,2.31,2.31,0,0,0-2.37-1.11,7.92,7.92,0,0,1-2.66,0,2.31,2.31,0,0,0-2.37,1.12.31.31,0,0,1-.41.11l-2.11-1.22a.29.29,0,0,1-.14-.19.26.26,0,0,1,0-.22,2.33,2.33,0,0,0-.21-2.6,8.35,8.35,0,0,1-1.35-2.33A2.28,2.28,0,0,0,35.8,45a.3.3,0,0,1-.3-.3V42.26a.29.29,0,0,1,.3-.3,2.3,2.3,0,0,0,2.14-1.48,8.21,8.21,0,0,1,1.35-2.33,2.33,2.33,0,0,0,.21-2.6.28.28,0,0,1,0-.23.26.26,0,0,1,.14-.18l2.11-1.22a.28.28,0,0,1,.15,0,.3.3,0,0,1,.25.14h0a2.32,2.32,0,0,0,2.37,1.12,7.92,7.92,0,0,1,2.66,0A2.33,2.33,0,0,0,49.53,34h0a.29.29,0,0,1,.4-.1l2.11,1.22a.26.26,0,0,1,.14.18.28.28,0,0,1,0,.23,2.3,2.3,0,0,0,.21,2.59,8.51,8.51,0,0,1,1.34,2.34A2.32,2.32,0,0,0,55.86,42a.29.29,0,0,1,.3.3Z"/><path class="cls-2" d="M45.83,38.94a4.54,4.54,0,1,0,4.54,4.54A4.54,4.54,0,0,0,45.83,38.94Zm0,7.08a2.54,2.54,0,1,1,2.54-2.54A2.54,2.54,0,0,1,45.83,46Z"/></g></g></g></symbol>
<symbol version="1.1" id="Layer_1" xmlns="http://www.w3.org/2000/svg" xmlns:xlink="http://www.w3.org/1999/xlink" x="0px" y="0px"
	 viewBox="0 0 32 32" style="enable-background:new 0 0 32 32;" xml:space="preserve">
<path id="rock-on_1_" d="M19.36,31h-0.72v-3.143l-8.28,2.16V31H9.64v-0.795l-0.549,0.144c-0.093,0.024-0.192,0.01-0.274-0.039
	s-0.143-0.129-0.166-0.223l-0.5-2c-0.048-0.191,0.067-0.386,0.258-0.436L9.64,27.33v-1.97H9c-0.199,0-0.36-0.161-0.36-0.36v-2
	c0-0.199,0.161-0.36,0.36-0.36h0.64v-1.419c-1.292-0.711-2-2.198-2-4.221V5.5c0-1.025,0.834-1.86,1.86-1.86s1.86,0.834,1.86,1.86
	v3.531c0.315-0.245,0.711-0.391,1.14-0.391c0.615,0,1.161,0.3,1.5,0.761c0.339-0.461,0.885-0.761,1.5-0.761
	c0.429,0,0.825,0.146,1.14,0.391V2.5c0-1.076,0.781-1.857,1.857-1.86c0.002,0,0.003,0,0.005,0s0.003,0,0.005,0
	c1.074,0.003,1.854,0.784,1.854,1.86v12.915c0,0.122,0.104,0.226,0.229,0.226c0.08,0,0.133-0.042,0.158-0.066l2.48-2.431
	c0.352-0.327,0.801-0.503,1.272-0.503c1.025,0,1.86,0.834,1.86,1.86c0,0.497-0.194,0.964-0.545,1.315l-4.444,4.389
	c-0.462,0.463-1.166,1.004-2.011,1.129v1.307H20c0.199,0,0.36,0.161,0.36,0.36v1.956l0.489,1.957
	c0.048,0.191-0.067,0.386-0.259,0.436l-1.23,0.321V31z M8.936,28.259l0.326,1.301l10.803-2.818l-0.325-1.301L8.936,28.259z
	 M10.36,25.36v1.782l6.833-1.782H10.36z M9.36,24.64h10.28v-1.28H9.36V24.64z M10.36,22.64h8.28V21c0-0.199,0.161-0.36,0.36-0.36
	c0.798,0,1.51-0.593,1.863-0.946l4.438-4.384c0.22-0.219,0.338-0.505,0.338-0.81c0-0.628-0.511-1.14-1.14-1.14
	c-0.289,0-0.564,0.108-0.775,0.304l-2.471,2.421c-0.176,0.176-0.413,0.275-0.665,0.275c-0.523,0-0.949-0.424-0.949-0.945V2.5
	c0-0.692-0.446-1.139-1.138-1.14C17.809,1.361,17.36,1.808,17.36,2.5v12c0,1.025-0.835,1.86-1.86,1.86
	c-0.862,0-1.609-0.622-1.808-1.433c-0.323,0.27-0.739,0.433-1.192,0.433c-1.008,0-1.86-0.852-1.86-1.86v-8
	c0-0.628-0.512-1.14-1.14-1.14S8.36,4.872,8.36,5.5V17c0,1.061,0.233,2.949,1.792,3.674C10.279,20.732,10.36,20.86,10.36,21V22.64z
	 M14.36,13.5v1c0,0.607,0.533,1.14,1.14,1.14c0.628,0,1.14-0.512,1.14-1.14v-4c0-0.628-0.512-1.14-1.14-1.14s-1.14,0.512-1.14,1.14
	C14.36,10.5,14.36,13.5,14.36,13.5z M11.36,10.5v3c0,0.607,0.533,1.14,1.14,1.14c0.628,0,1.14-0.512,1.14-1.14v-3
	c0-0.628-0.512-1.14-1.14-1.14S11.36,9.872,11.36,10.5z"/>
<rect id="_Transparent_Rectangle" style="fill:none;" width="32" height="32"/>
</symbol>
<symbol version="1.1" id="Capa_1" xmlns="http://www.w3.org/2000/svg" xmlns:xlink="http://www.w3.org/1999/xlink" x="0px" y="0px"
	 viewBox="0 0 326.845 326.845" style="enable-background:new 0 0 326.845 326.845;" xml:space="preserve">
<path d="M264.693,326.845h-38.079c-4.418,0-8-3.582-8-8v-30.464H108.231v30.464c0,4.418-3.582,8-8,8H62.152c-4.418,0-8-3.582-8-8
	v-6.939H24.074c-4.418,0-8-3.582-8-8V224.03c0-4.418,3.582-8,8-8h30.077v-6.938c0-4.418,3.582-8,8-8h38.079c4.418,0,8,3.582,8,8
	v30.464h110.384v-30.464c0-4.418,3.582-8,8-8h38.079c4.418,0,8,3.582,8,8v6.938h30.077c4.418,0,8,3.582,8,8v79.875
	c0,4.418-3.582,8-8,8h-30.077v6.939C272.693,323.263,269.112,326.845,264.693,326.845z M234.615,310.845h22.079v-93.753h-22.079
	V310.845z M70.152,310.845h22.079v-93.753H70.152V310.845z M272.693,295.905h22.077V232.03h-22.077V295.905z M32.074,295.905h22.077
	V232.03H32.074V295.905z M108.231,272.381h110.384v-16.825H108.231V272.381z M145.443,223.376c-1.331,0-2.68-0.332-3.922-1.032
	c-3.849-2.17-5.209-7.05-3.04-10.898c14.273-25.312,33.543-46.712,56.214-63.181c-9.894-13.703-21.197-26.173-33.681-37.227
	c-31.019,33.403-73.355,55.896-120.395,61.599c1.042,4.209,2.303,8.368,3.784,12.468c1.501,4.155-0.65,8.741-4.806,10.242
	c-4.158,1.502-8.741-0.651-10.242-4.807c-5.571-15.424-8.396-31.599-8.396-48.077C20.959,63.908,84.868,0,163.423,0
	c78.554,0,142.462,63.908,142.462,142.463c0,14.179-2.104,28.201-6.255,41.68c-1.301,4.223-5.78,6.589-10,5.291
	c-4.223-1.3-6.591-5.777-5.291-10c3.68-11.951,5.546-24.39,5.546-36.971c0-4.869-0.276-9.673-0.814-14.4
	c-25.871,2.997-50.403,11.521-72.172,24.662c4.713,7.504,9.017,15.253,12.873,23.202c1.928,3.975,0.269,8.761-3.706,10.689
	c-3.975,1.925-8.762,0.269-10.689-3.707c-3.573-7.366-7.501-14.486-11.761-21.341c-20.629,15.091-38.175,34.642-51.196,57.736
	C150.948,221.911,148.236,223.376,145.443,223.376z M66.601,61.193c-18.492,21.994-29.642,50.354-29.642,81.27
	c0,4.834,0.274,9.639,0.819,14.399c43.257-5.019,82.233-25.484,110.873-56.012C124.555,82.391,96.76,68.814,66.601,61.193z
	 M171.329,98.998c13.625,12.048,25.936,25.664,36.611,40.442c23.598-14.378,50.218-23.758,78.307-27.155
	c-9.987-40.635-39.667-73.615-78.299-88.194C201.125,51.937,188.433,77.333,171.329,98.998z M79.321,48.096
	c28.682,8.458,55.914,22.357,79.681,40.709c15.771-20.065,27.435-43.606,33.62-69.402C183.248,17.179,173.468,16,163.423,16
	C131.162,16,101.686,28.14,79.321,48.096z"/>
<g>
</g>
<g>
</g>
<g>
</g>
<g>
</g>
<g>
</g>
<g>
</g>
<g>
</g>
<g>
</g>
<g>
</g>
<g>
</g>
<g>
</g>
<g>
</g>
<g>
</g>
<g>
</g>
<g>
</g>
</symbol>

</svg>