<svg width="0" height="0" class="hidden">
  <symbol version="1.1" id="cinema" xmlns="http://www.w3.org/2000/svg" xmlns:xlink="http://www.w3.org/1999/xlink" x="0px" y="0px" xml:space="preserve" viewBox="0 0 512.001 512.001">
    <g>
      <g>
        <path d="M504.397,0.042H125.783c-4.199,0-7.603,3.404-7.603,7.603c0,4.199,3.404,7.603,7.603,7.603h371.011v163.711H15.802V15.247
			h45.611c4.199,0,7.603-3.404,7.603-7.603c0-4.199-3.404-7.603-7.603-7.603H8.199C4,0.042,0.596,3.446,0.596,7.644v175.959
			C0.213,184.512,0,185.511,0,186.559v81.102v134.822v101.874c0,4.199,3.404,7.603,7.603,7.603h124.893h55.754h134.315h55.754
			h126.079c4.199,0,7.603-3.404,7.603-7.603V402.484V267.662V186.56V7.644C512,3.446,508.596,0.042,504.397,0.042z M15.206,275.264
			h64.367v119.617H15.206V275.264z M124.895,496.755h-0.001H15.206v-86.668h71.97c4.199,0,7.603-3.404,7.603-7.603V267.662
			c0-4.199-3.404-7.603-7.603-7.603h-71.97v-65.897H193.68c-5.226,2.793-10.295,5.935-15.16,9.465
			c-3.399,2.466-4.154,7.221-1.689,10.619s7.22,4.154,10.619,1.689c19.628-14.243,42.867-21.772,67.202-21.772
			c60.61,0,110.369,47.318,114.296,106.952h-39.17c-3.842-37.554-35.655-66.949-74.206-66.949
			c-38.551,0-70.365,29.395-74.206,66.949h-41.011c1.224-18.516,6.897-36.44,16.602-52.246c2.197-3.578,1.078-8.26-2.501-10.457
			c-3.578-2.197-8.26-1.078-10.457,2.501c-11.175,18.2-17.623,38.873-18.867,60.203h-9.36c-4.199,0-7.603,3.404-7.603,7.603v34.466
			c0,4.199,3.404,7.603,7.603,7.603h9.123V496.755z M304.571,350.785h10.39v119.617h-51.787V249.874
			c26.662,3.424,47.834,24.584,51.279,51.239h-9.882c-4.199,0-7.603,3.404-7.603,7.603v34.466
			C296.968,347.381,300.372,350.785,304.571,350.785z M207.51,301.114h-10.82c3.445-26.656,24.617-47.815,51.279-51.239v220.528
			h-52.116V350.785h11.658c4.199,0,7.603-3.404,7.603-7.603v-34.466C215.112,304.518,211.708,301.114,207.51,301.114z
			 M180.647,478.005v18.75h-40.548v-145.97h40.548V478.005z M188.249,335.58h-55.753h-9.123v-19.26h64.393
			c0.267,0.028,0.537,0.045,0.812,0.045c0.275,0,0.545-0.016,0.812-0.045h10.517v19.26H188.249z M314.962,496.755h-119.11v-11.148
			h119.11V496.755z M370.715,496.755h-40.548v-18.75v-127.22h40.548V496.755z M322.565,335.58h-10.39v-19.26h9.578
			c0.267,0.028,0.537,0.045,0.812,0.045s0.545-0.016,0.812-0.045h65.332v19.26h-10.39H322.565z M496.794,394.881h-64.367V275.264
			h64.367V394.881z M496.794,260.059h-71.97c-4.199,0-7.603,3.404-7.603,7.603v134.822c0,4.199,3.404,7.603,7.603,7.603h71.97
			v86.668H385.921v-145.97h10.39c4.199,0,7.603-3.404,7.603-7.603v-34.466c0-4.199-3.404-7.603-7.603-7.603h-12.128
			c-2.691-46.339-29.808-86.227-68.637-106.952h181.248V260.059z"></path>
      </g>
    </g>
    <g>
      <g>
        <path d="M394.921,33.497H107.03c-4.199,0-7.603,3.404-7.603,7.603s3.404,7.603,7.603,7.603h287.891
			c4.199,0,7.603-3.404,7.603-7.603C402.523,36.901,399.119,33.497,394.921,33.497z"></path>
      </g>
    </g>
    <g>
      <g>
        <path d="M394.921,145.511H107.03c-4.199,0-7.603,3.404-7.603,7.603s3.404,7.603,7.603,7.603h287.891
			c4.199,0,7.603-3.404,7.603-7.603S399.119,145.511,394.921,145.511z"></path>
      </g>
    </g>
    <g>
      <g>
        <path d="M147.584,107.09c-3.151,0-5.745,0.927-5.93,3.799c-0.278,3.892-1.019,9.915-9.452,9.915
			c-6.393,0-9.915-3.428-9.915-10.656V84.295c0-7.229,3.521-10.657,9.729-10.657c8.803,0,9.452,6.301,9.635,9.174
			c0.093,2.781,2.595,3.799,6.023,3.799c4.077,0,6.023-1.112,6.023-5.93c0-10.75-9.174-17.607-22.054-17.607
			c-11.676,0-21.405,5.746-21.405,21.221v25.853c0,15.474,9.637,21.22,21.313,21.22c12.973,0,22.147-7.135,22.147-18.348
			C153.699,108.295,151.753,107.09,147.584,107.09z"></path>
      </g>
    </g>
    <g>
      <g>
        <path d="M167.875,63.076c-3.058,0-6.023,1.112-6.023,3.706v60.233c0,2.502,2.966,3.799,6.023,3.799
			c2.965,0,6.023-1.298,6.023-3.799V66.782C173.898,64.188,170.84,63.076,167.875,63.076z"></path>
      </g>
    </g>
    <g>
      <g>
        <path d="M223.937,63.076c-3.058,0-6.023,1.112-6.023,3.706v37.251l-17.885-34.564c-2.873-5.468-4.633-6.394-8.988-6.394
			c-3.058,0-6.023,1.204-6.023,3.799v60.14c0,2.502,2.966,3.799,6.023,3.799c2.965,0,6.023-1.298,6.023-3.799V89.762l19.923,37.251
			c1.575,2.873,4.077,3.799,6.95,3.8c2.965,0,6.023-1.298,6.023-3.799V66.782C229.96,64.188,226.902,63.076,223.937,63.076z"></path>
      </g>
    </g>
    <g>
      <g>
        <path d="M279.349,120.25h-26.224v-18.626h14.085c2.595,0,3.799-2.502,3.799-4.634c0-2.502-1.39-4.819-3.799-4.819h-14.085V73.638
			h26.224c2.41,0,3.799-2.502,3.799-5.375c0-2.502-1.204-5.189-3.799-5.189H246.36c-2.688,0-5.282,1.298-5.282,3.799v60.141
			c0,2.502,2.595,3.799,5.282,3.799h32.989c2.595,0,3.799-2.686,3.799-5.189C283.148,122.752,281.758,120.25,279.349,120.25z"></path>
      </g>
    </g>
    <g>
      <g>
        <path d="M337.819,63.074c-4.355,0-6.393,0.927-9.452,6.394l-11.398,20.758l-11.398-20.758c-3.058-5.468-5.004-6.394-9.359-6.394
			c-3.058,0-6.023,1.575-6.023,6.023v57.917c0,2.502,2.966,3.799,6.023,3.799c2.965,0,6.023-1.298,6.023-3.799V86.427l10.657,20.016
			c1.02,1.853,2.503,2.41,3.985,2.41s3.057-0.557,4.077-2.41l10.842-19.275v39.846c0,2.502,2.965,3.799,6.023,3.799
			c2.966,0,6.023-1.298,6.023-3.799V69.098C343.842,64.65,340.876,63.074,337.819,63.074z"></path>
      </g>
    </g>
    <g>
      <g>
        <path d="M401.663,124.883l-17.885-58.287c-0.834-2.78-4.263-4.077-7.784-4.077c-3.428,0-6.857,1.298-7.691,4.077l-17.885,58.287
			c-0.092,0.37-0.186,0.741-0.186,0.927c0,2.965,4.356,5.004,7.599,5.004c2.039,0,3.614-0.649,4.077-2.41l3.522-12.325h21.221
			l3.522,12.325c0.463,1.761,2.039,2.41,4.077,2.41c3.244,0,7.599-2.131,7.599-5.004
			C401.848,125.532,401.756,125.254,401.663,124.883z M367.932,106.627l8.062-28.448l8.062,28.448H367.932z"></path>
      </g>
    </g>
    <g></g>
    <g></g>
    <g></g>
    <g></g>
    <g></g>
    <g></g>
    <g></g>
    <g></g>
    <g></g>
    <g></g>
    <g></g>
    <g></g>
    <g></g>
    <g></g>
    <g></g>
  </symbol>
  <symbol version="1.1" id="coding" xmlns="http://www.w3.org/2000/svg" xmlns:xlink="http://www.w3.org/1999/xlink" x="0px" y="0px" xml:space="preserve" viewBox="0 0 412.996 412.996">
    <g>
      <g>
        <g>
          <path d="M392.996,28.338H20c-11.047,0-20,8.954-20,20v234c0,11.046,8.953,20,20,20h139.498v45.32h-54.283
				c-10.201,0-18.5,8.299-18.5,18.5s8.299,18.5,18.5,18.5h202.566c10.201,0,18.5-8.299,18.5-18.5s-8.299-18.5-18.5-18.5h-54.283
				v-45.32h139.498c11.047,0,20-8.954,20-20v-234C412.996,37.292,404.043,28.338,392.996,28.338z M382.996,272.338H30v-214h352.996
				V272.338z"></path>
          <path d="M94.591,176.637l63.084,29.336c1.631,0.755,3.367,1.138,5.162,1.138c2.338,0,4.616-0.664,6.597-1.924
				c3.548-2.267,5.666-6.13,5.666-10.335v-0.322c0-4.751-2.785-9.115-7.096-11.119l-39.455-18.33l39.456-18.334
				c4.31-2.004,7.095-6.369,7.095-11.118v-0.319c0-4.211-2.119-8.074-5.665-10.334c-1.962-1.254-4.247-1.916-6.606-1.916
				c-1.778,0-3.563,0.391-5.16,1.133L94.59,153.525c-4.308,2.005-7.091,6.369-7.091,11.117v0.878
				C87.498,170.262,90.28,174.625,94.591,176.637z"></path>
          <path d="M175.662,236.389c2.301,3.149,6.002,5.029,9.901,5.029h0.315c5.352,0,10.042-3.426,11.672-8.516l41.557-128.76
				c1.192-3.717,0.53-7.818-1.771-10.974c-2.301-3.149-6.002-5.03-9.901-5.03h-0.314c-5.354,0-10.048,3.426-11.679,8.516
				L173.88,225.425C172.698,229.145,173.364,233.242,175.662,236.389z"></path>
          <path d="M237.896,135.628c0,4.746,2.782,9.11,7.095,11.122l39.455,18.33l-39.455,18.33c-4.311,2.004-7.096,6.368-7.096,11.119
				v0.322c0,4.205,2.117,8.068,5.669,10.336c1.974,1.258,4.254,1.923,6.595,1.923c1.792,0,3.527-0.383,5.169-1.142l63.081-29.335
				c4.307-2.009,7.089-6.372,7.089-11.115v-0.878c0-4.748-2.783-9.112-7.093-11.117l-63.08-29.334
				c-1.591-0.739-3.373-1.131-5.152-1.131c-2.358,0-4.644,0.662-6.604,1.912c-3.554,2.264-5.673,6.127-5.673,10.338V135.628
				L237.896,135.628z"></path>
        </g>
      </g>
    </g>
    <g></g>
    <g></g>
    <g></g>
    <g></g>
    <g></g>
    <g></g>
    <g></g>
    <g></g>
    <g></g>
    <g></g>
    <g></g>
    <g></g>
    <g></g>
    <g></g>
    <g></g>
  </symbol>
  <symbol version="1.1" id="rock" xmlns="http://www.w3.org/2000/svg" xmlns:xlink="http://www.w3.org/1999/xlink" x="0px" y="0px" xml:space="preserve" viewBox="0 0 82.919 82.92">
    <g>
      <g>
        <path d="M12.31,16.345v23.072v4.556c0,8.717,3.852,16.547,9.937,21.894V81.92c0,0.555,0.446,1,1,1h36.336c0.553,0,1-0.445,1-1
			V65.945C66.72,60.6,70.61,52.732,70.61,43.973c0-0.005-0.002-0.008-0.002-0.011c0-0.106-0.026-0.213-0.063-0.313
			c-0.006-0.021-0.004-0.047-0.015-0.066c-0.008-0.02-0.026-0.035-0.036-0.055c-0.05-0.1-0.105-0.19-0.183-0.269
			c-0.002-0.002-0.004-0.005-0.006-0.008l-6.554-6.331c0.271-0.18,0.453-0.47,0.453-0.814V7.237C64.205,3.246,60.958,0,56.966,0
			c-3.987,0-7.233,3.247-7.233,7.237v13.026v1.268c-1.349-1.414-3.228-2.268-5.235-2.268c-2.654,0-4.979,1.435-6.239,3.569
			c-1.26-2.135-3.584-3.569-6.236-3.569c-2.061,0-3.917,0.869-5.235,2.256v-5.176c0-3.99-3.247-7.236-7.238-7.236
			C15.559,9.107,12.31,12.355,12.31,16.345z M24.244,76.736h34.337v4.184H24.244V76.736z M58.582,74.736H24.244v-7.262
			c4.827,3.545,10.779,5.646,17.216,5.646c6.395,0,12.311-2.076,17.122-5.58V74.736z M51.733,7.237C51.733,4.349,54.082,2,56.966,2
			c2.892,0,5.238,2.351,5.238,5.237v28.188l-10.473-10.12V23.19v-2.926L51.733,7.237L51.733,7.237z M44.496,21.265
			c1.961,0,3.752,1.112,4.647,2.846c-0.213,0.027-0.42,0.105-0.584,0.269c-4.478,4.477-4.478,11.757,0,16.233l1.047,1.047
			c-0.522,2.383-2.662,4.107-5.11,4.107c-2.891,0-5.238-2.352-5.238-5.238v-4.028v-10C39.258,23.613,41.606,21.265,44.496,21.265z
			 M53.73,45.793c-0.043-0.006-0.082-0.023-0.125-0.023h-4.158c0.744-0.701,1.359-1.545,1.756-2.518l2.543,2.543
			C53.737,45.793,53.733,45.793,53.73,45.793z M32.022,21.265c2.889,0,5.236,2.35,5.236,5.236v10c0,2.889-2.35,5.237-5.236,5.237
			c-2.888,0-5.235-2.351-5.235-5.237v-10C26.784,23.613,29.133,21.265,32.022,21.265z M19.546,11.107c2.89,0,5.238,2.35,5.238,5.236
			V26.5v10c0,3.991,3.245,7.236,7.235,7.236c2.088,0,3.971-0.889,5.293-2.308c0.212,1.697,1.021,3.212,2.201,4.335h-16.27
			c-0.554,0-1,0.447-1,1s0.446,1,1,1h26.571l-8.851,5.021c-0.479,0.271-0.648,0.883-0.377,1.361
			c0.186,0.322,0.521,0.506,0.871,0.506c0.167,0,0.337-0.043,0.492-0.131l12.145-6.893c0.037-0.021,0.062-0.057,0.096-0.082
			c0.059-0.043,0.109-0.084,0.158-0.137c0.043-0.049,0.07-0.102,0.104-0.154c0.031-0.053,0.063-0.105,0.086-0.17
			c0.021-0.064,0.029-0.133,0.041-0.201c0.004-0.042,0.023-0.078,0.023-0.124c0-0.021-0.012-0.034-0.014-0.056
			c0-0.021,0.01-0.043,0.004-0.062l4.279,4.275c0.192,0.195,0.448,0.293,0.707,0.293c0.256,0,0.512-0.098,0.707-0.293
			c0.391-0.393,0.391-1.021,0-1.414L49.974,39.197c-3.629-3.63-3.686-9.489-0.186-13.199c0.006,0.021,0.006,0.04,0.012,0.061
			c0.008,0.019,0.006,0.042,0.014,0.061c0.01,0.021,0.029,0.038,0.039,0.059c0.049,0.097,0.105,0.188,0.184,0.264
			c0.002,0.002,0.004,0.005,0.006,0.008l18.562,17.939c-0.121,8.043-3.758,15.243-9.438,20.143c-0.158,0.072-0.281,0.191-0.381,0.33
			c-4.705,3.908-10.744,6.263-17.324,6.263c-14.972,0-27.15-12.181-27.15-27.149v-4.555V16.345
			C14.31,13.457,16.658,11.107,19.546,11.107z"></path>
      </g>
    </g>
    <g></g>
    <g></g>
    <g></g>
    <g></g>
    <g></g>
    <g></g>
    <g></g>
    <g></g>
    <g></g>
    <g></g>
    <g></g>
    <g></g>
    <g></g>
    <g></g>
    <g></g>
  </symbol>
  <symbol version="1.1" id="sport" xmlns="http://www.w3.org/2000/svg" xmlns:xlink="http://www.w3.org/1999/xlink" x="0px" y="0px" xml:space="preserve" viewBox="0 0 326.845 326.845">
    <path d="M264.693,326.845h-38.079c-4.418,0-8-3.582-8-8v-30.464H108.231v30.464c0,4.418-3.582,8-8,8H62.152c-4.418,0-8-3.582-8-8
	v-6.939H24.074c-4.418,0-8-3.582-8-8V224.03c0-4.418,3.582-8,8-8h30.077v-6.938c0-4.418,3.582-8,8-8h38.079c4.418,0,8,3.582,8,8
	v30.464h110.384v-30.464c0-4.418,3.582-8,8-8h38.079c4.418,0,8,3.582,8,8v6.938h30.077c4.418,0,8,3.582,8,8v79.875
	c0,4.418-3.582,8-8,8h-30.077v6.939C272.693,323.263,269.112,326.845,264.693,326.845z M234.615,310.845h22.079v-93.753h-22.079
	V310.845z M70.152,310.845h22.079v-93.753H70.152V310.845z M272.693,295.905h22.077V232.03h-22.077V295.905z M32.074,295.905h22.077
	V232.03H32.074V295.905z M108.231,272.381h110.384v-16.825H108.231V272.381z M145.443,223.376c-1.331,0-2.68-0.332-3.922-1.032
	c-3.849-2.17-5.209-7.05-3.04-10.898c14.273-25.312,33.543-46.712,56.214-63.181c-9.894-13.703-21.197-26.173-33.681-37.227
	c-31.019,33.403-73.355,55.896-120.395,61.599c1.042,4.209,2.303,8.368,3.784,12.468c1.501,4.155-0.65,8.741-4.806,10.242
	c-4.158,1.502-8.741-0.651-10.242-4.807c-5.571-15.424-8.396-31.599-8.396-48.077C20.959,63.908,84.868,0,163.423,0
	c78.554,0,142.462,63.908,142.462,142.463c0,14.179-2.104,28.201-6.255,41.68c-1.301,4.223-5.78,6.589-10,5.291
	c-4.223-1.3-6.591-5.777-5.291-10c3.68-11.951,5.546-24.39,5.546-36.971c0-4.869-0.276-9.673-0.814-14.4
	c-25.871,2.997-50.403,11.521-72.172,24.662c4.713,7.504,9.017,15.253,12.873,23.202c1.928,3.975,0.269,8.761-3.706,10.689
	c-3.975,1.925-8.762,0.269-10.689-3.707c-3.573-7.366-7.501-14.486-11.761-21.341c-20.629,15.091-38.175,34.642-51.196,57.736
	C150.948,221.911,148.236,223.376,145.443,223.376z M66.601,61.193c-18.492,21.994-29.642,50.354-29.642,81.27
	c0,4.834,0.274,9.639,0.819,14.399c43.257-5.019,82.233-25.484,110.873-56.012C124.555,82.391,96.76,68.814,66.601,61.193z
	 M171.329,98.998c13.625,12.048,25.936,25.664,36.611,40.442c23.598-14.378,50.218-23.758,78.307-27.155
	c-9.987-40.635-39.667-73.615-78.299-88.194C201.125,51.937,188.433,77.333,171.329,98.998z M79.321,48.096
	c28.682,8.458,55.914,22.357,79.681,40.709c15.771-20.065,27.435-43.606,33.62-69.402C183.248,17.179,173.468,16,163.423,16
	C131.162,16,101.686,28.14,79.321,48.096z"></path>
    <g></g>
    <g></g>
    <g></g>
    <g></g>
    <g></g>
    <g></g>
    <g></g>
    <g></g>
    <g></g>
    <g></g>
    <g></g>
    <g></g>
    <g></g>
    <g></g>
    <g></g>
  </symbol>
</svg>