<svg width="80" height="80" xmlns="http://www.w3.org/2000/svg">

 <g>
  <title>background</title>
  <rect fill="none" id="canvas_background" height="402" width="582" y="-1" x="-1"/>
 </g>
 <g>
  <title>Layer 1</title>
  <path fill="#ffffff" id="svg_1" d="m70.511719,10.986328c-0.67863,0.02926 -1.354668,0.210407 -1.97461,0.451172l-0.001953,0c-0.604108,0.235797 -4.485222,1.843726 -10.142578,4.191406c-5.657356,2.34768 -13.010478,5.403999 -20.300781,8.435547c-14.580607,6.063097 -28.908203,12.027344 -28.908203,12.027344l0.064453,-0.023438c0,0 -0.799528,0.261944 -1.599609,0.802735c-0.400041,0.270395 -0.820039,0.615857 -1.152344,1.095703c-0.332306,0.479846 -0.566188,1.137012 -0.476563,1.841797c0.161743,1.271883 1.028671,2.103832 1.744141,2.603515c0.715469,0.499684 1.402344,0.736328 1.402344,0.736329l0.007812,0.003906l14.013672,4.632812c0.230597,0.802551 3.976339,13.845906 4.859375,16.59961c0.461885,1.441943 0.889047,2.24239 1.289063,2.746093c0.200006,0.251852 0.397521,0.430684 0.595703,0.552735c0.0852,0.05247 0.169632,0.08796 0.251953,0.11914c0.01342,0.0051 0.027755,0.015002 0.041015,0.019532c0.028246,0.009644 0.043329,0.009545 0.078125,0.017578c1.320286,0.488357 2.435547,-0.363281 2.435547,-0.363282l0.03125,-0.023437l9.607422,-8.453125l14.208985,11.394531l0.125,0.054688c2.280194,0.982255 4.164845,0.442635 5.259765,-0.421875c1.09492,-0.864511 1.539063,-1.996094 1.539063,-1.996094l0.035156,-0.087891l10.25,-51.845703c0.251195,-1.109076 0.27647,-2.040039 0.058594,-2.839844c-0.217873,-0.799806 -0.724653,-1.450119 -1.353516,-1.814453c-0.628863,-0.364334 -1.309652,-0.486293 -1.988281,-0.457031zm0.054687,2.035156c0.398034,-0.017127 0.733504,0.037553 0.931641,0.152344c0.198136,0.114791 0.326904,0.246398 0.425781,0.609375c0.09888,0.362977 0.122729,0.97567 -0.080078,1.871094l-0.003906,0.013672l-10.208985,51.644531c-0.01501,0.03457 -0.278017,0.653127 -0.90039,1.144531c-0.627528,0.495474 -1.481631,0.861591 -3.152344,0.169922l-22.839844,-18.316406a1.0001,1.0001 0 0 0 -0.738281,-0.310547a1.0001,1.0001 0 0 0 -1.011719,0.974609l-2.603515,13.949219c-0.13311,-0.306538 -0.276551,-0.666219 -0.431641,-1.15039c-0.805964,-2.513359 -4.430222,-15.098124 -4.787109,-16.337891l35.847656,-23.208985a1.0001,1.0001 0 0 0 0.986328,0.773438a1.0001,1.0001 0 0 0 0.988281,-1.216797c0.026567,-0.306017 0.000944,-0.606963 -0.132812,-0.90625c-0.215818,-0.482897 -0.726746,-0.776899 -1.089844,-0.845703c-0.726196,-0.137608 -1.199219,0.126953 -1.199219,0.126953l-0.099609,0.037109l-36.609375,23.705079l-14.03125,-4.638672l-0.003906,-0.001953c-0.003715,-0.001286 -0.444511,-0.160347 -0.914063,-0.488282c-0.47153,-0.329316 -0.846039,-0.756727 -0.904297,-1.214843c-0.020374,-0.160215 0.0104,-0.268768 0.136719,-0.451172c0.126319,-0.182404 0.360494,-0.39802 0.626953,-0.578125c0.532918,-0.36021 1.121094,-0.564453 1.121094,-0.564453l0.03125,-0.011719l0.033203,-0.013672c0,0 14.326107,-5.96444 28.90625,-12.027344c7.290071,-3.031452 14.644293,-6.086273 20.300781,-8.433594c5.656488,-2.347319 9.696218,-4.017578 10.101563,-4.175781c0.446058,-0.173234 0.906654,-0.262169 1.304687,-0.279297zm-11.367187,12.677735l-0.800781,0.402343l-0.158204,0.882813l0.613282,0.654297l0.345703,0.060547l0.800781,-0.400391l0.158203,-0.882812l-0.611328,-0.654297l-0.347656,-0.0625zm-2.798828,2.701172l-0.800782,0.40039l-0.158203,0.882813l0.611328,0.654297l0.347657,0.0625l0.800781,-0.402344l0.158203,-0.880859l-0.613281,-0.654297l-0.345703,-0.0625zm-2.800782,2.699218l-0.800781,0.402344l-0.158203,0.880859l0.611328,0.654297l0.347656,0.0625l0.800782,-0.40039l0.158203,-0.882813l-0.611328,-0.654297l-0.347657,-0.0625zm-2.798828,2.701172l-0.802734,0.400391l-0.15625,0.882812l0.611328,0.654297l0.347656,0.0625l0.800781,-0.402343l0.158204,-0.88086l-0.613282,-0.65625l-0.345703,-0.060547zm-2.800781,2.699219l-0.800781,0.402344l-0.158203,0.880859l0.611328,0.654297l0.347656,0.0625l0.800781,-0.400391l0.158203,-0.882812l-0.611328,-0.654297l-0.347656,-0.0625zm-2.800781,2.699219l-0.800781,0.402343l-0.158204,0.882813l0.613282,0.654297l0.345703,0.060547l0.802734,-0.400391l0.15625,-0.882812l-0.611328,-0.654297l-0.347656,-0.0625zm-2.798828,2.701172l-0.800782,0.40039l-0.158203,0.882813l0.611328,0.654297l0.347657,0.0625l0.800781,-0.402344l0.158203,-0.880859l-0.613281,-0.654297l-0.345703,-0.0625zm-2.800782,2.699218l-0.800781,0.402344l-0.158203,0.880859l0.613281,0.654297l0.345703,0.0625l0.800782,-0.40039l0.158203,-0.882813l-0.611328,-0.654297l-0.347657,-0.0625zm-2.798828,2.701172l-0.802734,0.400391l-0.15625,0.882812l0.611328,0.654297l0.347656,0.0625l0.800781,-0.402343l0.158204,-0.882813l-0.613282,-0.654297l-0.345703,-0.060547zm-2.125,5.523438l6.119141,4.90625l-8.416016,7.402343l2.296875,-12.308593z"/>
 </g>
</svg>